<svg width="82" height="82" viewBox="0 0 82 82" fill="none" xmlns="http://www.w3.org/2000/svg">
<circle cx="40.775" cy="40.775" r="40.775" fill="url(#paint0_linear_186_8)"/>
<path d="M25.6364 64V17.4545H41.9091C45.1515 17.4545 47.8258 18.0152 49.9318 19.1364C52.0379 20.2424 53.6061 21.7348 54.6364 23.6136C55.6667 25.4773 56.1818 27.5455 56.1818 29.8182C56.1818 31.8182 55.8258 33.4697 55.1136 34.7727C54.4167 36.0758 53.4924 37.1061 52.3409 37.8636C51.2045 38.6212 49.9697 39.1818 48.6364 39.5455V40C50.0606 40.0909 51.4924 40.5909 52.9318 41.5C54.3712 42.4091 55.5758 43.7121 56.5455 45.4091C57.5152 47.1061 58 49.1818 58 51.6364C58 53.9697 57.4697 56.0682 56.4091 57.9318C55.3485 59.7955 53.6742 61.2727 51.3864 62.3636C49.0985 63.4545 46.1212 64 42.4545 64H25.6364ZM31.2727 59H42.4545C46.1364 59 48.75 58.2879 50.2955 56.8636C51.8561 55.4242 52.6364 53.6818 52.6364 51.6364C52.6364 50.0606 52.2348 48.6061 51.4318 47.2727C50.6288 45.9242 49.4848 44.8485 48 44.0455C46.5152 43.2273 44.7576 42.8182 42.7273 42.8182H31.2727V59ZM31.2727 37.9091H41.7273C43.4242 37.9091 44.9545 37.5758 46.3182 36.9091C47.697 36.2424 48.7879 35.303 49.5909 34.0909C50.4091 32.8788 50.8182 31.4545 50.8182 29.8182C50.8182 27.7727 50.1061 26.0379 48.6818 24.6136C47.2576 23.1742 45 22.4545 41.9091 22.4545H31.2727V37.9091Z" fill="white"/>
<defs>
<linearGradient id="paint0_linear_186_8" x1="-30.5" y1="-6.5" x2="78" y2="75" gradientUnits="userSpaceOnUse">
<stop offset="0.0281562" stop-color="#8B95A0"/>
<stop offset="0.794633" stop-color="#1E1E1E"/>
<stop offset="1" stop-color="#A4A4B9"/>
</linearGradient>
</defs>
</svg>
